<svg width="236" height="48" viewBox="0 0 236 48" fill="none" xmlns="http://www.w3.org/2000/svg">
<path d="M6 20H14V34H6V20ZM20 14H28V40H20V14Z" fill="#46B49E" stroke="#3A3A3A" stroke-linejoin="round"/>
<path d="M24 44V40" stroke="#3A3A3A" stroke-linecap="round" stroke-linejoin="round"/>
<path d="M34 12H42V21H34V12Z" fill="#E14E1D" stroke="#3A3A3A" stroke-linejoin="round"/>
<path d="M10 20V10M38 34V21M38 12V4" stroke="#3A3A3A" stroke-linecap="round" stroke-linejoin="round"/>
<path d="M54.0508 33.5V15.043H57.5371V33.5H54.0508ZM70.8133 33.5V26.9631C70.8133 26.647 70.7962 26.2454 70.762 25.7583C70.7278 25.2627 70.621 24.7671 70.4416 24.2715C70.2621 23.7759 69.9673 23.3615 69.5572 23.0282C69.1556 22.695 68.5831 22.5283 67.8397 22.5283C67.5406 22.5283 67.2201 22.5753 66.8783 22.6693C66.5366 22.7633 66.2161 22.947 65.917 23.2205C65.618 23.4854 65.3702 23.8784 65.1736 24.3997C64.9857 24.9209 64.8917 25.6131 64.8917 26.4761L62.8922 25.5276C62.8922 24.4339 63.1143 23.4085 63.5587 22.4514C64.003 21.4944 64.6695 20.7211 65.5582 20.1315C66.4554 19.5419 67.5833 19.2471 68.9419 19.2471C70.0271 19.2471 70.9115 19.4308 71.5951 19.7982C72.2787 20.1657 72.8085 20.6314 73.1845 21.1953C73.569 21.7593 73.8424 22.3489 74.0048 22.9641C74.1672 23.5708 74.2654 24.1262 74.2996 24.6304C74.3338 25.1345 74.3509 25.502 74.3509 25.7327V33.5H70.8133ZM61.3541 33.5V19.6573H64.4559V24.2459H64.8917V33.5H61.3541ZM85.9824 33.5C85.0254 33.6794 84.0855 33.7563 83.1626 33.7307C82.2483 33.7136 81.428 33.5555 80.7017 33.2565C79.9839 32.9489 79.437 32.4575 79.061 31.7825C78.7193 31.1502 78.5398 30.5093 78.5227 29.8599C78.5056 29.2019 78.4971 28.4585 78.4971 27.6296V15.812H81.9834V27.4246C81.9834 27.9629 81.9877 28.45 81.9962 28.8858C82.0133 29.313 82.103 29.6548 82.2654 29.9111C82.573 30.3982 83.0643 30.6631 83.7394 30.7058C84.4144 30.7485 85.1621 30.7144 85.9824 30.6033V33.5ZM76.1387 22.3489V19.6573H85.9824V22.3489H76.1387ZM94.7505 33.8845C93.332 33.8845 92.0802 33.5812 90.995 32.9745C89.9184 32.3593 89.0724 31.5176 88.4572 30.4495C87.8505 29.3728 87.5471 28.1423 87.5471 26.7581C87.5471 25.2456 87.8462 23.9297 88.4444 22.8103C89.0425 21.6909 89.8671 20.8236 90.9181 20.2084C91.9691 19.5846 93.1782 19.2727 94.5454 19.2727C95.9981 19.2727 97.2328 19.6145 98.2496 20.2981C99.2665 20.9817 100.018 21.943 100.505 23.182C100.993 24.421 101.163 25.8779 101.018 27.5527H97.5703V26.271C97.5703 24.8611 97.3439 23.8485 96.891 23.2333C96.4467 22.6095 95.7161 22.2976 94.6992 22.2976C93.5115 22.2976 92.6356 22.6608 92.0717 23.3871C91.5162 24.1049 91.2385 25.1687 91.2385 26.5786C91.2385 27.8689 91.5162 28.8687 92.0717 29.5779C92.6356 30.2786 93.4602 30.6289 94.5454 30.6289C95.229 30.6289 95.8143 30.4794 96.3014 30.1803C96.7885 29.8812 97.1602 29.4497 97.4165 28.8858L100.903 29.8855C100.382 31.1502 99.557 32.1328 98.4291 32.8335C97.3097 33.5342 96.0835 33.8845 94.7505 33.8845ZM90.1619 27.5527V24.9636H99.3391V27.5527H90.1619ZM103.912 33.5V19.6573H106.988V23.041L106.655 22.6052C106.835 22.1267 107.074 21.6909 107.373 21.2979C107.672 20.9048 108.039 20.5801 108.475 20.3238C108.809 20.1187 109.172 19.9606 109.565 19.8495C109.958 19.7299 110.364 19.6573 110.782 19.6316C111.201 19.5974 111.62 19.606 112.039 19.6573V22.9129C111.654 22.7932 111.205 22.7548 110.693 22.7975C110.189 22.8317 109.731 22.947 109.321 23.1436C108.911 23.3316 108.565 23.5836 108.283 23.8998C108.001 24.2074 107.787 24.5748 107.642 25.0021C107.497 25.4208 107.424 25.895 107.424 26.4248V33.5H103.912ZM121.449 33.8845C120.082 33.8845 118.847 33.6453 117.745 33.1667C116.651 32.6797 115.75 31.9876 115.041 31.0903C114.34 30.1846 113.896 29.1079 113.708 27.8604L117.348 27.322C117.604 28.3816 118.134 29.1976 118.937 29.7701C119.74 30.3427 120.655 30.6289 121.68 30.6289C122.252 30.6289 122.808 30.5392 123.346 30.3597C123.885 30.1803 124.325 29.9154 124.666 29.5651C125.017 29.2147 125.192 28.7832 125.192 28.2705C125.192 28.0825 125.162 27.9031 125.102 27.7322C125.051 27.5527 124.961 27.3861 124.833 27.2323C124.705 27.0785 124.521 26.9332 124.282 26.7965C124.051 26.6598 123.756 26.5359 123.397 26.4248L118.604 25.0149C118.245 24.9124 117.826 24.7671 117.348 24.5791C116.878 24.3911 116.421 24.122 115.976 23.7716C115.532 23.4213 115.16 22.9599 114.861 22.3874C114.571 21.8063 114.425 21.0757 114.425 20.1956C114.425 18.9566 114.737 17.9269 115.361 17.1066C115.985 16.2863 116.818 15.6753 117.86 15.2737C118.903 14.8721 120.056 14.6756 121.321 14.6841C122.594 14.7012 123.731 14.9191 124.73 15.3378C125.73 15.7565 126.568 16.3675 127.243 17.1707C127.918 17.9654 128.405 18.9395 128.704 20.093L124.936 20.7339C124.799 20.1358 124.547 19.6316 124.179 19.2215C123.812 18.8113 123.372 18.4994 122.859 18.2858C122.355 18.0722 121.825 17.9568 121.27 17.9397C120.723 17.9226 120.206 17.9995 119.719 18.1704C119.24 18.3328 118.847 18.572 118.54 18.8882C118.241 19.2044 118.091 19.5803 118.091 20.0161C118.091 20.4177 118.215 20.7467 118.463 21.0031C118.711 21.2509 119.022 21.4517 119.398 21.6055C119.774 21.7593 120.159 21.8875 120.552 21.99L123.756 22.8616C124.235 22.9898 124.765 23.1607 125.346 23.3743C125.927 23.5794 126.482 23.8699 127.012 24.2459C127.55 24.6133 127.99 25.1004 128.332 25.707C128.683 26.3137 128.858 27.0828 128.858 28.0142C128.858 29.0054 128.648 29.8727 128.23 30.6161C127.819 31.351 127.264 31.9619 126.563 32.449C125.863 32.9275 125.068 33.2864 124.179 33.5256C123.299 33.7649 122.389 33.8845 121.449 33.8845ZM138.109 33.8845C136.691 33.8845 135.439 33.5812 134.354 32.9745C133.277 32.3593 132.431 31.5176 131.816 30.4495C131.209 29.3728 130.906 28.1423 130.906 26.7581C130.906 25.2456 131.205 23.9297 131.803 22.8103C132.401 21.6909 133.226 20.8236 134.277 20.2084C135.328 19.5846 136.537 19.2727 137.904 19.2727C139.357 19.2727 140.592 19.6145 141.608 20.2981C142.625 20.9817 143.377 21.943 143.864 23.182C144.351 24.421 144.522 25.8779 144.377 27.5527H140.929V26.271C140.929 24.8611 140.703 23.8485 140.25 23.2333C139.805 22.6095 139.075 22.2976 138.058 22.2976C136.87 22.2976 135.994 22.6608 135.43 23.3871C134.875 24.1049 134.597 25.1687 134.597 26.5786C134.597 27.8689 134.875 28.8687 135.43 29.5779C135.994 30.2786 136.819 30.6289 137.904 30.6289C138.588 30.6289 139.173 30.4794 139.66 30.1803C140.147 29.8812 140.519 29.4497 140.775 28.8858L144.262 29.8855C143.74 31.1502 142.916 32.1328 141.788 32.8335C140.668 33.5342 139.442 33.8845 138.109 33.8845ZM133.521 27.5527V24.9636H142.698V27.5527H133.521ZM156.329 33.5V26.9631C156.329 26.647 156.312 26.2454 156.278 25.7583C156.244 25.2627 156.137 24.7671 155.957 24.2715C155.778 23.7759 155.483 23.3615 155.073 23.0282C154.671 22.695 154.099 22.5283 153.355 22.5283C153.056 22.5283 152.736 22.5753 152.394 22.6693C152.052 22.7633 151.732 22.947 151.433 23.2205C151.134 23.4854 150.886 23.8784 150.689 24.3997C150.501 24.9209 150.407 25.6131 150.407 26.4761L148.408 25.5276C148.408 24.4339 148.63 23.4085 149.074 22.4514C149.519 21.4944 150.185 20.7211 151.074 20.1315C151.971 19.5419 153.099 19.2471 154.458 19.2471C155.543 19.2471 156.427 19.4308 157.111 19.7982C157.795 20.1657 158.324 20.6314 158.7 21.1953C159.085 21.7593 159.358 22.3489 159.521 22.9641C159.683 23.5708 159.781 24.1262 159.815 24.6304C159.85 25.1345 159.867 25.502 159.867 25.7327V33.5H156.329ZM146.87 33.5V19.6573H149.972V24.2459H150.407V33.5H146.87ZM171.498 33.5C170.541 33.6794 169.601 33.7563 168.678 33.7307C167.764 33.7136 166.944 33.5555 166.217 33.2565C165.5 32.9489 164.953 32.4575 164.577 31.7825C164.235 31.1502 164.056 30.5093 164.039 29.8599C164.021 29.2019 164.013 28.4585 164.013 27.6296V15.812H167.499V27.4246C167.499 27.9629 167.503 28.45 167.512 28.8858C167.529 29.313 167.619 29.6548 167.781 29.9111C168.089 30.3982 168.58 30.6631 169.255 30.7058C169.93 30.7485 170.678 30.7144 171.498 30.6033V33.5ZM161.655 22.3489V19.6573H171.498V22.3489H161.655ZM174.839 17.7346V14.6585H178.326V17.7346H174.839ZM174.839 33.5V19.6573H178.326V33.5H174.839ZM182.168 33.5V15.043H193.448V18.5293H185.655V22.5283H191.909V26.0147H185.655V33.5H182.168ZM201.615 33.8845C200.223 33.8845 199.001 33.5726 197.95 32.9489C196.899 32.3251 196.078 31.4663 195.489 30.3726C194.908 29.2703 194.617 28.0056 194.617 26.5786C194.617 25.1345 194.916 23.8656 195.514 22.7719C196.112 21.6696 196.937 20.8108 197.988 20.1956C199.039 19.5803 200.248 19.2727 201.615 19.2727C203.008 19.2727 204.23 19.5846 205.281 20.2084C206.341 20.8322 207.165 21.6952 207.755 22.7975C208.345 23.8913 208.639 25.1516 208.639 26.5786C208.639 28.0142 208.34 29.2831 207.742 30.3854C207.153 31.4791 206.328 32.3379 205.268 32.9617C204.217 33.5769 203 33.8845 201.615 33.8845ZM201.615 30.6289C202.735 30.6289 203.568 30.2529 204.115 29.501C204.67 28.7405 204.948 27.7664 204.948 26.5786C204.948 25.3482 204.666 24.3655 204.102 23.6306C203.547 22.8958 202.718 22.5283 201.615 22.5283C200.855 22.5283 200.231 22.6992 199.744 23.041C199.257 23.3828 198.894 23.8571 198.655 24.4638C198.424 25.0705 198.309 25.7754 198.309 26.5786C198.309 27.8176 198.586 28.8046 199.142 29.5394C199.706 30.2658 200.53 30.6289 201.615 30.6289ZM211.458 33.5V19.6573H214.534V23.041L214.201 22.6052C214.38 22.1267 214.62 21.6909 214.919 21.2979C215.218 20.9048 215.585 20.5801 216.021 20.3238C216.354 20.1187 216.717 19.9606 217.11 19.8495C217.503 19.7299 217.909 19.6573 218.328 19.6316C218.747 19.5974 219.165 19.606 219.584 19.6573V22.9129C219.2 22.7932 218.751 22.7548 218.238 22.7975C217.734 22.8317 217.277 22.947 216.867 23.1436C216.457 23.3316 216.111 23.5836 215.829 23.8998C215.547 24.2074 215.333 24.5748 215.188 25.0021C215.043 25.4208 214.97 25.895 214.97 26.4248V33.5H211.458ZM228.206 33.8845C226.788 33.8845 225.536 33.5812 224.451 32.9745C223.374 32.3593 222.528 31.5176 221.913 30.4495C221.306 29.3728 221.003 28.1423 221.003 26.7581C221.003 25.2456 221.302 23.9297 221.9 22.8103C222.498 21.6909 223.323 20.8236 224.374 20.2084C225.425 19.5846 226.634 19.2727 228.001 19.2727C229.454 19.2727 230.689 19.6145 231.705 20.2981C232.722 20.9817 233.474 21.943 233.961 23.182C234.448 24.421 234.619 25.8779 234.474 27.5527H231.026V26.271C231.026 24.8611 230.8 23.8485 230.347 23.2333C229.902 22.6095 229.172 22.2976 228.155 22.2976C226.967 22.2976 226.091 22.6608 225.527 23.3871C224.972 24.1049 224.694 25.1687 224.694 26.5786C224.694 27.8689 224.972 28.8687 225.527 29.5779C226.091 30.2786 226.916 30.6289 228.001 30.6289C228.685 30.6289 229.27 30.4794 229.757 30.1803C230.244 29.8812 230.616 29.4497 230.872 28.8858L234.359 29.8855C233.837 31.1502 233.013 32.1328 231.885 32.8335C230.765 33.5342 229.539 33.8845 228.206 33.8845ZM223.618 27.5527V24.9636H232.795V27.5527H223.618Z" fill="white"/>
</svg>
